# xmcd
# Copyright (C) 1995-1998 Ti Kan
#
# Track frame offsets:
#       150
#       14777
#       32985
#       50487
#
# Disc length: 883 seconds
#
# Revision: 0
# Processed by: cddbd v1.5.2PL0 Copyright (c) Steve Scherf et al.
# Submitted via: CD-Import v1.0
#
DISCID=33037104
DTITLE=The Zoo - Demo 2005
DYEAR=1900
DGENRE=
TTITLE0=Lady A
TTITLE1=You're Allowed
TTITLE2=Once
TTITLE3=She's Like Silver
EXTD=
EXTT0=
EXTT1=
EXTT2=
EXTT3=
PLAYORDER=
